<mxfile host="app.diagrams.net" modified="2024-06-25T07:34:28.625Z" agent="Mozilla/5.0 (Windows NT 10.0; Win64; x64) AppleWebKit/537.36 (KHTML, like Gecko) Chrome/125.0.0.0 Safari/537.36 Edg/125.0.0.0" etag="mAmw7dT1GsDFP5MYMsMi" version="24.6.2" type="github">
  <diagram name="第 1 页" id="q-j6vuq5w8XLsUYLvh6M">
    <mxGraphModel dx="1683" dy="954" grid="1" gridSize="10" guides="1" tooltips="1" connect="1" arrows="1" fold="1" page="1" pageScale="1" pageWidth="500" pageHeight="750" math="0" shadow="0">
      <root>
        <mxCell id="0" />
        <mxCell id="1" parent="0" />
        <mxCell id="Zr5mx6mt9YZKuDAXMMV7-43" value="" style="html=1;shadow=0;dashed=0;align=center;verticalAlign=middle;shape=mxgraph.arrows2.arrow;dy=0.67;dx=21.32;direction=south;notch=0;strokeWidth=2;fontFamily=Helvetica;" parent="1" vertex="1">
          <mxGeometry x="203" y="281.25" width="44" height="60" as="geometry" />
        </mxCell>
        <mxCell id="Zr5mx6mt9YZKuDAXMMV7-125" value="&lt;font style=&quot;font-size: 20px;&quot;&gt;x = a&#39;bc+a&#39;bc&#39;&lt;/font&gt;" style="text;html=1;align=center;verticalAlign=middle;whiteSpace=wrap;rounded=0;fontFamily=Helvetica;fontSize=20;" parent="1" vertex="1">
          <mxGeometry x="6" y="331.25" width="440" height="60" as="geometry" />
        </mxCell>
        <mxCell id="Zr5mx6mt9YZKuDAXMMV7-126" value="&lt;font style=&quot;font-size: 20px;&quot;&gt;y = b&#39;c&#39;+ab&#39;+ac&lt;/font&gt;" style="text;html=1;align=center;verticalAlign=middle;whiteSpace=wrap;rounded=0;fontFamily=Helvetica;fontSize=20;" parent="1" vertex="1">
          <mxGeometry x="6" y="361.25" width="440" height="60" as="geometry" />
        </mxCell>
        <mxCell id="Zr5mx6mt9YZKuDAXMMV7-128" value="&lt;font style=&quot;font-size: 20px;&quot;&gt;x = a&#39;b&lt;/font&gt;" style="text;html=1;align=center;verticalAlign=middle;whiteSpace=wrap;rounded=0;fontFamily=Helvetica;fontSize=20;" parent="1" vertex="1">
          <mxGeometry x="6" y="461.25" width="440" height="60" as="geometry" />
        </mxCell>
        <mxCell id="Zr5mx6mt9YZKuDAXMMV7-129" value="&lt;font style=&quot;font-size: 20px;&quot;&gt;y = b&#39;c&#39;+ac&lt;/font&gt;" style="text;html=1;align=center;verticalAlign=middle;whiteSpace=wrap;rounded=0;fontFamily=Helvetica;fontSize=20;" parent="1" vertex="1">
          <mxGeometry x="6" y="491.25" width="440" height="60" as="geometry" />
        </mxCell>
        <mxCell id="Zr5mx6mt9YZKuDAXMMV7-151" value="&lt;font style=&quot;font-size: 20px;&quot;&gt;RTL to Logic&lt;/font&gt;&lt;div style=&quot;font-size: 20px;&quot;&gt;&lt;font style=&quot;font-size: 20px;&quot;&gt;Synthesis&lt;/font&gt;&lt;/div&gt;" style="text;html=1;align=center;verticalAlign=middle;whiteSpace=wrap;rounded=0;fontFamily=Helvetica;strokeWidth=3;fontSize=11;" parent="1" vertex="1">
          <mxGeometry x="224.5" y="281.25" width="250" height="60" as="geometry" />
        </mxCell>
        <mxCell id="Zr5mx6mt9YZKuDAXMMV7-152" value="&lt;font style=&quot;font-size: 20px;&quot;&gt;&lt;font style=&quot;font-size: 20px;&quot;&gt;Technology&amp;nbsp;&lt;/font&gt;&lt;span style=&quot;background-color: initial; font-size: 20px;&quot;&gt;Independent&lt;/span&gt;&lt;/font&gt;&lt;div style=&quot;font-size: 20px;&quot;&gt;&lt;font style=&quot;font-size: 20px;&quot;&gt;Synthesis&lt;/font&gt;&lt;/div&gt;" style="text;html=1;align=center;verticalAlign=middle;whiteSpace=wrap;rounded=0;fontFamily=Helvetica;strokeWidth=3;fontSize=20;" parent="1" vertex="1">
          <mxGeometry x="216" y="401.25" width="284" height="60" as="geometry" />
        </mxCell>
        <mxCell id="Zr5mx6mt9YZKuDAXMMV7-153" value="&lt;font style=&quot;font-size: 20px;&quot;&gt;&lt;font style=&quot;font-size: 20px;&quot;&gt;Technology&amp;nbsp;&lt;/font&gt;&lt;span style=&quot;background-color: initial;&quot;&gt;Dependent&lt;/span&gt;&lt;/font&gt;&lt;div style=&quot;font-size: 20px;&quot;&gt;&lt;font style=&quot;font-size: 20px;&quot;&gt;Synthesis&lt;/font&gt;&lt;/div&gt;" style="text;html=1;align=center;verticalAlign=middle;whiteSpace=wrap;rounded=0;fontFamily=Helvetica;strokeWidth=3;" parent="1" vertex="1">
          <mxGeometry x="241.5" y="541.25" width="233" height="60" as="geometry" />
        </mxCell>
        <mxCell id="Zr5mx6mt9YZKuDAXMMV7-175" value="" style="group;strokeWidth=3;shadow=1;rounded=1;" parent="1" vertex="1" connectable="0">
          <mxGeometry x="86" y="621.25" width="246" height="108.75" as="geometry" />
        </mxCell>
        <mxCell id="Zr5mx6mt9YZKuDAXMMV7-176" value="" style="rounded=0;whiteSpace=wrap;html=1;dashed=1;dashPattern=8 8;strokeWidth=2;fillColor=#f5f5f5;fontColor=#333333;strokeColor=#666666;" parent="Zr5mx6mt9YZKuDAXMMV7-175" vertex="1">
          <mxGeometry width="246.00000000000003" height="108.75" as="geometry" />
        </mxCell>
        <mxCell id="Zr5mx6mt9YZKuDAXMMV7-177" value="" style="shape=or;whiteSpace=wrap;html=1;fillColor=#e1d5e7;strokeColor=#9673a6;strokeWidth=2;" parent="Zr5mx6mt9YZKuDAXMMV7-175" vertex="1">
          <mxGeometry x="29.125683060109285" y="5.178571428571428" width="40.32786885245903" height="36.24999999999999" as="geometry" />
        </mxCell>
        <mxCell id="Zr5mx6mt9YZKuDAXMMV7-178" value="" style="shape=xor;whiteSpace=wrap;html=1;fillColor=#e1d5e7;strokeColor=#9673a6;strokeWidth=2;" parent="Zr5mx6mt9YZKuDAXMMV7-175" vertex="1">
          <mxGeometry x="100.81967213114756" y="10.357142857142856" width="40.32786885245903" height="36.24999999999999" as="geometry" />
        </mxCell>
        <mxCell id="Zr5mx6mt9YZKuDAXMMV7-179" value="" style="shape=or;whiteSpace=wrap;html=1;fillColor=#e1d5e7;strokeColor=#9673a6;strokeWidth=2;" parent="Zr5mx6mt9YZKuDAXMMV7-175" vertex="1">
          <mxGeometry x="29.125683060109285" y="67.32142857142857" width="40.32786885245903" height="36.24999999999999" as="geometry" />
        </mxCell>
        <mxCell id="Zr5mx6mt9YZKuDAXMMV7-180" value="" style="shape=or;whiteSpace=wrap;html=1;fillColor=#e1d5e7;strokeColor=#9673a6;strokeWidth=2;" parent="Zr5mx6mt9YZKuDAXMMV7-175" vertex="1">
          <mxGeometry x="181.47540983606558" y="15.535714285714286" width="40.32786885245903" height="36.24999999999999" as="geometry" />
        </mxCell>
        <mxCell id="Zr5mx6mt9YZKuDAXMMV7-181" value="" style="endArrow=none;html=1;rounded=0;endSize=6;strokeWidth=2;entryX=0.481;entryY=0.002;entryDx=0;entryDy=0;entryPerimeter=0;fontFamily=Helvetica;exitX=0.222;exitY=0.357;exitDx=0;exitDy=0;exitPerimeter=0;" parent="Zr5mx6mt9YZKuDAXMMV7-175" source="Zr5mx6mt9YZKuDAXMMV7-178" edge="1">
          <mxGeometry width="50" height="50" relative="1" as="geometry">
            <mxPoint x="114.26229508196724" y="20.71428571428571" as="sourcePoint" />
            <mxPoint x="69.45355191256833" y="23.08607142857145" as="targetPoint" />
          </mxGeometry>
        </mxCell>
        <mxCell id="Zr5mx6mt9YZKuDAXMMV7-182" value="" style="endArrow=none;html=1;rounded=0;endSize=6;strokeWidth=2;fontFamily=Helvetica;" parent="Zr5mx6mt9YZKuDAXMMV7-175" edge="1">
          <mxGeometry width="50" height="50" relative="1" as="geometry">
            <mxPoint x="29.125683060109285" y="77.67857142857142" as="sourcePoint" />
            <mxPoint x="19.04371584699454" y="77.67857142857142" as="targetPoint" />
          </mxGeometry>
        </mxCell>
        <mxCell id="Zr5mx6mt9YZKuDAXMMV7-183" value="" style="endArrow=none;html=1;rounded=0;endSize=6;strokeWidth=2;entryX=1;entryY=0.5;entryDx=0;entryDy=0;entryPerimeter=0;fontFamily=Helvetica;exitX=0.222;exitY=0.357;exitDx=0;exitDy=0;exitPerimeter=0;edgeStyle=orthogonalEdgeStyle;" parent="Zr5mx6mt9YZKuDAXMMV7-175" target="Zr5mx6mt9YZKuDAXMMV7-179" edge="1">
          <mxGeometry width="50" height="50" relative="1" as="geometry">
            <mxPoint x="110.22950819672134" y="34.3960714285714" as="sourcePoint" />
            <mxPoint x="69.9016393442623" y="34.17857142857143" as="targetPoint" />
            <Array as="points">
              <mxPoint x="87.37704918032789" y="34.17857142857143" />
              <mxPoint x="87.37704918032789" y="85.44642857142856" />
            </Array>
          </mxGeometry>
        </mxCell>
        <mxCell id="Zr5mx6mt9YZKuDAXMMV7-184" value="" style="endArrow=none;html=1;rounded=0;endSize=6;strokeWidth=2;entryX=0.481;entryY=0.002;entryDx=0;entryDy=0;entryPerimeter=0;fontFamily=Helvetica;exitX=0.222;exitY=0.357;exitDx=0;exitDy=0;exitPerimeter=0;" parent="Zr5mx6mt9YZKuDAXMMV7-175" edge="1">
          <mxGeometry width="50" height="50" relative="1" as="geometry">
            <mxPoint x="181.47540983606558" y="28.57535714285712" as="sourcePoint" />
            <mxPoint x="141.14754098360658" y="28.35785714285713" as="targetPoint" />
          </mxGeometry>
        </mxCell>
        <mxCell id="Zr5mx6mt9YZKuDAXMMV7-185" value="" style="endArrow=none;html=1;rounded=0;endSize=6;strokeWidth=2;fontFamily=Helvetica;" parent="Zr5mx6mt9YZKuDAXMMV7-175" edge="1">
          <mxGeometry width="50" height="50" relative="1" as="geometry">
            <mxPoint x="29.125683060109285" y="93.21428571428571" as="sourcePoint" />
            <mxPoint x="19.04371584699454" y="93.21428571428571" as="targetPoint" />
          </mxGeometry>
        </mxCell>
        <mxCell id="Zr5mx6mt9YZKuDAXMMV7-186" value="" style="endArrow=none;html=1;rounded=0;endSize=6;strokeWidth=2;fontFamily=Helvetica;" parent="Zr5mx6mt9YZKuDAXMMV7-175" edge="1">
          <mxGeometry width="50" height="50" relative="1" as="geometry">
            <mxPoint x="29.125683060109285" y="15.494285714285695" as="sourcePoint" />
            <mxPoint x="19.04371584699454" y="15.494285714285695" as="targetPoint" />
          </mxGeometry>
        </mxCell>
        <mxCell id="Zr5mx6mt9YZKuDAXMMV7-187" value="" style="endArrow=none;html=1;rounded=0;endSize=6;strokeWidth=2;fontFamily=Helvetica;" parent="Zr5mx6mt9YZKuDAXMMV7-175" edge="1">
          <mxGeometry width="50" height="50" relative="1" as="geometry">
            <mxPoint x="29.125683060109285" y="31.029999999999976" as="sourcePoint" />
            <mxPoint x="19.04371584699454" y="31.029999999999976" as="targetPoint" />
          </mxGeometry>
        </mxCell>
        <mxCell id="Zr5mx6mt9YZKuDAXMMV7-188" value="" style="endArrow=none;html=1;rounded=0;endSize=6;strokeWidth=2;fontFamily=Helvetica;" parent="Zr5mx6mt9YZKuDAXMMV7-175" edge="1">
          <mxGeometry width="50" height="50" relative="1" as="geometry">
            <mxPoint x="181.47540983606558" y="41.42857142857142" as="sourcePoint" />
            <mxPoint x="171.39344262295086" y="41.42857142857142" as="targetPoint" />
          </mxGeometry>
        </mxCell>
        <mxCell id="Zr5mx6mt9YZKuDAXMMV7-189" value="" style="endArrow=none;html=1;rounded=0;endSize=6;strokeWidth=2;fontFamily=Helvetica;" parent="Zr5mx6mt9YZKuDAXMMV7-175" edge="1">
          <mxGeometry width="50" height="50" relative="1" as="geometry">
            <mxPoint x="231.88524590163934" y="33.57267857142859" as="sourcePoint" />
            <mxPoint x="221.8032786885246" y="33.57267857142859" as="targetPoint" />
          </mxGeometry>
        </mxCell>
        <mxCell id="Zr5mx6mt9YZKuDAXMMV7-205" value="" style="html=1;shadow=0;dashed=0;align=center;verticalAlign=middle;shape=mxgraph.arrows2.arrow;dy=0.67;dx=21.32;direction=south;notch=0;strokeWidth=2;fontFamily=Helvetica;fontSize=20;" parent="1" vertex="1">
          <mxGeometry x="203" y="411.25" width="44" height="60" as="geometry" />
        </mxCell>
        <mxCell id="S6nZZP0lEL5ucnFqrqt4-16" value="" style="html=1;shadow=0;dashed=0;align=center;verticalAlign=middle;shape=mxgraph.arrows2.arrow;dy=0.67;dx=21.32;direction=south;notch=0;strokeWidth=2;fontFamily=Helvetica;" parent="1" vertex="1">
          <mxGeometry x="204" y="541.25" width="44" height="60" as="geometry" />
        </mxCell>
        <mxCell id="GU6NQKBW_tPqqT3vrKI3-2" value="" style="group" vertex="1" connectable="0" parent="1">
          <mxGeometry x="60" y="30" width="330" height="240" as="geometry" />
        </mxCell>
        <mxCell id="Zr5mx6mt9YZKuDAXMMV7-66" value="" style="group;fontFamily=Helvetica;" parent="GU6NQKBW_tPqqT3vrKI3-2" vertex="1" connectable="0">
          <mxGeometry width="171.53465346534654" height="240" as="geometry" />
        </mxCell>
        <mxCell id="Zr5mx6mt9YZKuDAXMMV7-156" value="" style="rounded=1;whiteSpace=wrap;html=1;strokeWidth=3;fillColor=#f5f5f5;fontColor=#333333;strokeColor=#666666;shadow=1;" parent="Zr5mx6mt9YZKuDAXMMV7-66" vertex="1">
          <mxGeometry x="-4.900990099009902" y="-14.034868851947726" width="160.09900990099013" height="248.4134360477809" as="geometry" />
        </mxCell>
        <mxCell id="Zr5mx6mt9YZKuDAXMMV7-67" value="" style="rounded=0;whiteSpace=wrap;html=1;rotation=90;strokeWidth=2;fontFamily=Helvetica;fillColor=#d5e8d4;strokeColor=#82b366;" parent="Zr5mx6mt9YZKuDAXMMV7-66" vertex="1">
          <mxGeometry x="5.173267326732673" y="8.34505715521216" width="68.36103253182463" height="45.06330863814568" as="geometry" />
        </mxCell>
        <mxCell id="Zr5mx6mt9YZKuDAXMMV7-68" value="&lt;font size=&quot;1&quot;&gt;&lt;b style=&quot;font-size: 16px;&quot;&gt;D&lt;/b&gt;&lt;/font&gt;" style="text;html=1;strokeColor=none;fillColor=none;align=center;verticalAlign=middle;whiteSpace=wrap;rounded=0;strokeWidth=2;fontFamily=Helvetica;" parent="Zr5mx6mt9YZKuDAXMMV7-66" vertex="1">
          <mxGeometry x="3" y="8.34505715521216" width="45.34229137199435" height="20.02813717250919" as="geometry" />
        </mxCell>
        <mxCell id="Zr5mx6mt9YZKuDAXMMV7-69" value="&lt;font size=&quot;1&quot;&gt;&lt;b style=&quot;font-size: 16px;&quot;&gt;Q&lt;/b&gt;&lt;/font&gt;" style="text;html=1;strokeColor=none;fillColor=none;align=center;verticalAlign=middle;whiteSpace=wrap;rounded=0;strokeWidth=2;fontFamily=Helvetica;" parent="Zr5mx6mt9YZKuDAXMMV7-66" vertex="1">
          <mxGeometry x="31.256718528995755" y="8.34505715521216" width="44.34229137199435" height="20.02813717250919" as="geometry" />
        </mxCell>
        <mxCell id="Zr5mx6mt9YZKuDAXMMV7-71" value="&lt;font size=&quot;1&quot;&gt;&lt;b style=&quot;font-size: 16px;&quot;&gt;clk&lt;/b&gt;&lt;/font&gt;" style="text;html=1;strokeColor=none;fillColor=none;align=center;verticalAlign=middle;whiteSpace=wrap;rounded=0;strokeWidth=2;fontFamily=Helvetica;" parent="Zr5mx6mt9YZKuDAXMMV7-66" vertex="1">
          <mxGeometry x="16.563649222065067" y="38.72106520018443" width="44.34229137199435" height="20.02813717250919" as="geometry" />
        </mxCell>
        <mxCell id="Zr5mx6mt9YZKuDAXMMV7-70" value="" style="triangle;whiteSpace=wrap;html=1;strokeWidth=2;fontFamily=Helvetica;fillColor=#d5e8d4;strokeColor=#82b366;" parent="Zr5mx6mt9YZKuDAXMMV7-66" vertex="1">
          <mxGeometry x="16.780763790664782" y="46.732320069188106" width="7.390381895332391" height="6.67604572416973" as="geometry" />
        </mxCell>
        <mxCell id="Zr5mx6mt9YZKuDAXMMV7-118" value="" style="endArrow=none;html=1;rounded=0;endSize=6;strokeWidth=2;entryX=0.82;entryY=0.974;entryDx=0;entryDy=0;entryPerimeter=0;exitX=1.006;exitY=0.404;exitDx=0;exitDy=0;exitPerimeter=0;fontFamily=Helvetica;" parent="Zr5mx6mt9YZKuDAXMMV7-66" source="Zr5mx6mt9YZKuDAXMMV7-67" edge="1">
          <mxGeometry width="50" height="50" relative="1" as="geometry">
            <mxPoint x="44.92992923085746" y="61.753066507456225" as="sourcePoint" />
            <mxPoint x="44.345792079207946" y="86.98624582852503" as="targetPoint" />
          </mxGeometry>
        </mxCell>
        <mxCell id="Zr5mx6mt9YZKuDAXMMV7-123" value="" style="endArrow=none;html=1;rounded=0;endSize=6;strokeWidth=2;exitX=-0.004;exitY=0.492;exitDx=0;exitDy=0;exitPerimeter=0;entryX=0.481;entryY=0.002;entryDx=0;entryDy=0;entryPerimeter=0;fontFamily=Helvetica;" parent="Zr5mx6mt9YZKuDAXMMV7-66" edge="1">
          <mxGeometry width="50" height="50" relative="1" as="geometry">
            <mxPoint x="201.8815841584159" y="108.44649596107654" as="sourcePoint" />
            <mxPoint x="114.35643564356437" y="108.16205595234382" as="targetPoint" />
          </mxGeometry>
        </mxCell>
        <mxCell id="Zr5mx6mt9YZKuDAXMMV7-87" value="" style="group;fontFamily=Helvetica;" parent="GU6NQKBW_tPqqT3vrKI3-2" vertex="1" connectable="0">
          <mxGeometry x="37.77846534653465" y="157.37766272650717" width="77.5990099009901" height="61.753422948570005" as="geometry" />
        </mxCell>
        <mxCell id="Zr5mx6mt9YZKuDAXMMV7-88" value="" style="rounded=0;whiteSpace=wrap;html=1;rotation=90;strokeWidth=2;fontFamily=Helvetica;fillColor=#d5e8d4;strokeColor=#82b366;" parent="Zr5mx6mt9YZKuDAXMMV7-87" vertex="1">
          <mxGeometry x="5.173267326732672" y="8.345057155212164" width="68.36103253182462" height="45.063308638145685" as="geometry" />
        </mxCell>
        <mxCell id="Zr5mx6mt9YZKuDAXMMV7-89" value="&lt;font size=&quot;1&quot;&gt;&lt;b style=&quot;font-size: 16px;&quot;&gt;D&lt;/b&gt;&lt;/font&gt;" style="text;html=1;strokeColor=none;fillColor=none;align=center;verticalAlign=middle;whiteSpace=wrap;rounded=0;strokeWidth=2;fontFamily=Helvetica;" parent="Zr5mx6mt9YZKuDAXMMV7-87" vertex="1">
          <mxGeometry x="2" y="8.345057155212164" width="44.34229137199434" height="20.02813717250919" as="geometry" />
        </mxCell>
        <mxCell id="Zr5mx6mt9YZKuDAXMMV7-90" value="&lt;font size=&quot;1&quot;&gt;&lt;b style=&quot;font-size: 16px;&quot;&gt;Q&lt;/b&gt;&lt;/font&gt;" style="text;html=1;strokeColor=none;fillColor=none;align=center;verticalAlign=middle;whiteSpace=wrap;rounded=0;strokeWidth=2;fontFamily=Helvetica;" parent="Zr5mx6mt9YZKuDAXMMV7-87" vertex="1">
          <mxGeometry x="31.256718528995748" y="8.345057155212164" width="44.34229137199434" height="20.02813717250919" as="geometry" />
        </mxCell>
        <mxCell id="Zr5mx6mt9YZKuDAXMMV7-92" value="&lt;font size=&quot;1&quot;&gt;&lt;b style=&quot;font-size: 16px;&quot;&gt;clk&lt;/b&gt;&lt;/font&gt;" style="text;html=1;strokeColor=none;fillColor=none;align=center;verticalAlign=middle;whiteSpace=wrap;rounded=0;strokeWidth=2;fontFamily=Helvetica;" parent="Zr5mx6mt9YZKuDAXMMV7-87" vertex="1">
          <mxGeometry x="16.563649222065063" y="38.721065200184434" width="44.34229137199434" height="20.02813717250919" as="geometry" />
        </mxCell>
        <mxCell id="Zr5mx6mt9YZKuDAXMMV7-91" value="" style="triangle;whiteSpace=wrap;html=1;strokeWidth=2;fontFamily=Helvetica;fillColor=#d5e8d4;strokeColor=#82b366;" parent="Zr5mx6mt9YZKuDAXMMV7-87" vertex="1">
          <mxGeometry x="16.780763790664782" y="46.73232006918812" width="7.390381895332391" height="6.676045724169731" as="geometry" />
        </mxCell>
        <mxCell id="GU6NQKBW_tPqqT3vrKI3-1" value="" style="group" vertex="1" connectable="0" parent="GU6NQKBW_tPqqT3vrKI3-2">
          <mxGeometry x="27.568069306930695" width="302.43193069306926" height="210.5230327792159" as="geometry" />
        </mxCell>
        <mxCell id="Zr5mx6mt9YZKuDAXMMV7-154" value="" style="rounded=1;whiteSpace=wrap;html=1;strokeWidth=3;fillColor=#f5f5f5;fontColor=#333333;strokeColor=#666666;shadow=1;" parent="GU6NQKBW_tPqqT3vrKI3-1" vertex="1">
          <mxGeometry x="173.37252475247524" y="8.420921311168636" width="129.05940594059405" height="202.10211146804724" as="geometry" />
        </mxCell>
        <mxCell id="Zr5mx6mt9YZKuDAXMMV7-80" value="" style="group;fontFamily=Helvetica;" parent="GU6NQKBW_tPqqT3vrKI3-1" vertex="1" connectable="0">
          <mxGeometry x="47.98886138613861" width="77.59900990099008" height="61.753422948570005" as="geometry" />
        </mxCell>
        <mxCell id="Zr5mx6mt9YZKuDAXMMV7-81" value="" style="rounded=0;whiteSpace=wrap;html=1;rotation=90;strokeWidth=2;fontFamily=Helvetica;fillColor=#d5e8d4;strokeColor=#82b366;" parent="Zr5mx6mt9YZKuDAXMMV7-80" vertex="1">
          <mxGeometry x="5.173267326732671" y="8.345057155212164" width="68.3610325318246" height="45.063308638145685" as="geometry" />
        </mxCell>
        <mxCell id="Zr5mx6mt9YZKuDAXMMV7-82" value="&lt;font size=&quot;1&quot;&gt;&lt;b style=&quot;font-size: 16px;&quot;&gt;D&lt;/b&gt;&lt;/font&gt;" style="text;html=1;strokeColor=none;fillColor=none;align=center;verticalAlign=middle;whiteSpace=wrap;rounded=0;strokeWidth=2;fontFamily=Helvetica;" parent="Zr5mx6mt9YZKuDAXMMV7-80" vertex="1">
          <mxGeometry x="2" y="8.345057155212164" width="44.342291371994335" height="20.02813717250919" as="geometry" />
        </mxCell>
        <mxCell id="Zr5mx6mt9YZKuDAXMMV7-83" value="&lt;font size=&quot;1&quot;&gt;&lt;b style=&quot;font-size: 16px;&quot;&gt;Q&lt;/b&gt;&lt;/font&gt;" style="text;html=1;strokeColor=none;fillColor=none;align=center;verticalAlign=middle;whiteSpace=wrap;rounded=0;strokeWidth=2;fontFamily=Helvetica;" parent="Zr5mx6mt9YZKuDAXMMV7-80" vertex="1">
          <mxGeometry x="31.256718528995748" y="8.345057155212164" width="44.342291371994335" height="20.02813717250919" as="geometry" />
        </mxCell>
        <mxCell id="Zr5mx6mt9YZKuDAXMMV7-85" value="&lt;font size=&quot;1&quot;&gt;&lt;b style=&quot;font-size: 16px;&quot;&gt;clk&lt;/b&gt;&lt;/font&gt;" style="text;html=1;strokeColor=none;fillColor=none;align=center;verticalAlign=middle;whiteSpace=wrap;rounded=0;strokeWidth=2;fontFamily=Helvetica;" parent="Zr5mx6mt9YZKuDAXMMV7-80" vertex="1">
          <mxGeometry x="16.563649222065063" y="38.721065200184434" width="44.342291371994335" height="20.02813717250919" as="geometry" />
        </mxCell>
        <mxCell id="Zr5mx6mt9YZKuDAXMMV7-84" value="" style="triangle;whiteSpace=wrap;html=1;strokeWidth=2;fontFamily=Helvetica;fillColor=#d5e8d4;strokeColor=#82b366;" parent="Zr5mx6mt9YZKuDAXMMV7-80" vertex="1">
          <mxGeometry x="16.780763790664782" y="46.73232006918812" width="7.390381895332391" height="6.676045724169731" as="geometry" />
        </mxCell>
        <mxCell id="Zr5mx6mt9YZKuDAXMMV7-112" value="" style="shape=trapezoid;perimeter=trapezoidPerimeter;whiteSpace=wrap;html=1;fixedSize=1;rotation=-180;strokeWidth=2;size=30;fillColor=#dae8fc;strokeColor=#6c8ebf;fontFamily=Helvetica;" parent="GU6NQKBW_tPqqT3vrKI3-1" vertex="1">
          <mxGeometry y="87.0161868820759" width="98.01980198019801" height="44.91158032623272" as="geometry" />
        </mxCell>
        <mxCell id="Zr5mx6mt9YZKuDAXMMV7-113" value="" style="triangle;whiteSpace=wrap;html=1;rotation=90;strokeWidth=2;fillColor=#F5F5F5;strokeColor=#f5f5f5;fontFamily=Helvetica;" parent="GU6NQKBW_tPqqT3vrKI3-1" vertex="1">
          <mxGeometry x="40.841584158415834" y="83.27355518822318" width="16.336633663366335" height="22.45579016311636" as="geometry" />
        </mxCell>
        <mxCell id="Zr5mx6mt9YZKuDAXMMV7-114" value="" style="endArrow=none;html=1;rounded=0;strokeColor=#f5f5f5;strokeWidth=3;curved=0;fontFamily=Helvetica;" parent="GU6NQKBW_tPqqT3vrKI3-1" edge="1">
          <mxGeometry width="50" height="50" relative="1" as="geometry">
            <mxPoint x="37.16584158415841" y="86.97876056513738" as="sourcePoint" />
            <mxPoint x="60.85396039603959" y="86.97876056513738" as="targetPoint" />
          </mxGeometry>
        </mxCell>
        <mxCell id="Zr5mx6mt9YZKuDAXMMV7-115" value="" style="endArrow=none;html=1;rounded=0;exitX=0.627;exitY=1.005;exitDx=0;exitDy=0;exitPerimeter=0;entryX=1;entryY=0.5;entryDx=0;entryDy=0;strokeWidth=2;strokeColor=#6C8EBF;fontFamily=Helvetica;" parent="GU6NQKBW_tPqqT3vrKI3-1" source="Zr5mx6mt9YZKuDAXMMV7-112" target="Zr5mx6mt9YZKuDAXMMV7-113" edge="1">
          <mxGeometry width="50" height="50" relative="1" as="geometry">
            <mxPoint x="40.841584158415834" y="79.53092349437044" as="sourcePoint" />
            <mxPoint x="81.68316831683167" y="42.10460655584318" as="targetPoint" />
          </mxGeometry>
        </mxCell>
        <mxCell id="Zr5mx6mt9YZKuDAXMMV7-116" value="" style="endArrow=none;html=1;rounded=0;exitX=1;exitY=0.5;exitDx=0;exitDy=0;entryX=0.373;entryY=1.008;entryDx=0;entryDy=0;strokeWidth=2;entryPerimeter=0;strokeColor=#6C8EBF;fontFamily=Helvetica;" parent="GU6NQKBW_tPqqT3vrKI3-1" source="Zr5mx6mt9YZKuDAXMMV7-113" target="Zr5mx6mt9YZKuDAXMMV7-112" edge="1">
          <mxGeometry width="50" height="50" relative="1" as="geometry">
            <mxPoint x="44.92574257425742" y="94.50145026978137" as="sourcePoint" />
            <mxPoint x="57.17821782178217" y="109.47197704519226" as="targetPoint" />
          </mxGeometry>
        </mxCell>
        <mxCell id="Zr5mx6mt9YZKuDAXMMV7-119" value="" style="endArrow=none;html=1;rounded=0;endSize=6;strokeWidth=2;entryX=0.82;entryY=0.974;entryDx=0;entryDy=0;entryPerimeter=0;exitX=1.006;exitY=0.404;exitDx=0;exitDy=0;exitPerimeter=0;fontFamily=Helvetica;" parent="GU6NQKBW_tPqqT3vrKI3-1" edge="1">
          <mxGeometry width="50" height="50" relative="1" as="geometry">
            <mxPoint x="86.6740099009901" y="62.90615351027663" as="sourcePoint" />
            <mxPoint x="86.91089108910893" y="87.01618688207587" as="targetPoint" />
          </mxGeometry>
        </mxCell>
        <mxCell id="Zr5mx6mt9YZKuDAXMMV7-120" value="" style="endArrow=none;html=1;rounded=0;endSize=6;strokeWidth=2;entryX=0.82;entryY=0.974;entryDx=0;entryDy=0;entryPerimeter=0;exitX=1.006;exitY=0.404;exitDx=0;exitDy=0;exitPerimeter=0;fontFamily=Helvetica;" parent="GU6NQKBW_tPqqT3vrKI3-1" edge="1">
          <mxGeometry width="50" height="50" relative="1" as="geometry">
            <mxPoint x="50.030940594059395" y="131.9277672083086" as="sourcePoint" />
            <mxPoint x="50.26782178217823" y="156.03780058010787" as="targetPoint" />
          </mxGeometry>
        </mxCell>
        <mxCell id="Zr5mx6mt9YZKuDAXMMV7-122" value="" style="endArrow=none;html=1;rounded=0;endSize=6;strokeWidth=2;exitX=-0.003;exitY=0.173;exitDx=0;exitDy=0;exitPerimeter=0;entryX=0.481;entryY=0.002;entryDx=0;entryDy=0;entryPerimeter=0;fontFamily=Helvetica;" parent="GU6NQKBW_tPqqT3vrKI3-1" target="Zr5mx6mt9YZKuDAXMMV7-81" edge="1">
          <mxGeometry width="50" height="50" relative="1" as="geometry">
            <mxPoint x="174.48668316831683" y="30.246078033870667" as="sourcePoint" />
            <mxPoint x="24.94603960396041" y="94.4715092162305" as="targetPoint" />
          </mxGeometry>
        </mxCell>
        <mxCell id="Zr5mx6mt9YZKuDAXMMV7-124" value="" style="endArrow=none;html=1;rounded=0;endSize=6;strokeWidth=2;exitX=-0.008;exitY=0.816;exitDx=0;exitDy=0;exitPerimeter=0;entryX=0.481;entryY=0.002;entryDx=0;entryDy=0;entryPerimeter=0;fontFamily=Helvetica;" parent="GU6NQKBW_tPqqT3vrKI3-1" edge="1">
          <mxGeometry width="50" height="50" relative="1" as="geometry">
            <mxPoint x="173.62084158415846" y="187.87262576801902" as="sourcePoint" />
            <mxPoint x="74.5358910891089" y="188.06724261609955" as="targetPoint" />
          </mxGeometry>
        </mxCell>
        <mxCell id="Zr5mx6mt9YZKuDAXMMV7-198" value="" style="group" parent="GU6NQKBW_tPqqT3vrKI3-1" vertex="1" connectable="0">
          <mxGeometry x="173.37252475247524" y="45.09871191092536" width="122.5247524752475" height="112.27895081558181" as="geometry" />
        </mxCell>
        <mxCell id="Zr5mx6mt9YZKuDAXMMV7-199" value="" style="ellipse;whiteSpace=wrap;html=1;aspect=fixed;strokeWidth=3;fontFamily=Helvetica;strokeColor=#d20404;" parent="Zr5mx6mt9YZKuDAXMMV7-198" vertex="1">
          <mxGeometry x="29.17256011315416" width="28.89851454722774" height="28.89851454722774" as="geometry" />
        </mxCell>
        <mxCell id="Zr5mx6mt9YZKuDAXMMV7-200" value="" style="ellipse;whiteSpace=wrap;html=1;aspect=fixed;strokeWidth=3;fontFamily=Helvetica;strokeColor=#d20404;" parent="Zr5mx6mt9YZKuDAXMMV7-198" vertex="1">
          <mxGeometry x="87.51768033946249" y="39.05354810976759" width="28.89851454722774" height="28.89851454722774" as="geometry" />
        </mxCell>
        <mxCell id="Zr5mx6mt9YZKuDAXMMV7-201" value="" style="ellipse;whiteSpace=wrap;html=1;aspect=fixed;strokeWidth=3;fontFamily=Helvetica;strokeColor=#d20404;" parent="Zr5mx6mt9YZKuDAXMMV7-198" vertex="1">
          <mxGeometry x="29.17256011315416" y="82.98878973325616" width="28.89851454722774" height="28.89851454722774" as="geometry" />
        </mxCell>
        <mxCell id="Zr5mx6mt9YZKuDAXMMV7-202" value="" style="curved=1;endArrow=classic;html=1;rounded=0;strokeWidth=3;exitX=0.427;exitY=1.016;exitDx=0;exitDy=0;exitPerimeter=0;fontFamily=Helvetica;" parent="Zr5mx6mt9YZKuDAXMMV7-198" target="Zr5mx6mt9YZKuDAXMMV7-199" edge="1">
          <mxGeometry width="50" height="50" relative="1" as="geometry">
            <mxPoint x="32.67326732673266" y="89.82316065246545" as="sourcePoint" />
            <mxPoint x="-19.837340876944836" y="17.574096649395415" as="targetPoint" />
            <Array as="points">
              <mxPoint y="58.580322164651385" />
            </Array>
          </mxGeometry>
        </mxCell>
        <mxCell id="Zr5mx6mt9YZKuDAXMMV7-203" value="" style="curved=1;endArrow=classic;html=1;rounded=0;strokeWidth=3;exitX=1.009;exitY=0.588;exitDx=0;exitDy=0;exitPerimeter=0;entryX=0.211;entryY=0.066;entryDx=0;entryDy=0;entryPerimeter=0;fontFamily=Helvetica;" parent="Zr5mx6mt9YZKuDAXMMV7-198" source="Zr5mx6mt9YZKuDAXMMV7-199" target="Zr5mx6mt9YZKuDAXMMV7-200" edge="1">
          <mxGeometry width="50" height="50" relative="1" as="geometry">
            <mxPoint x="102.68741159830266" y="40.02988681251178" as="sourcePoint" />
            <mxPoint x="105.021216407355" y="-24.408467568604742" as="targetPoint" />
            <Array as="points">
              <mxPoint x="87.51768033946249" y="19.526774054883795" />
            </Array>
          </mxGeometry>
        </mxCell>
        <mxCell id="Zr5mx6mt9YZKuDAXMMV7-204" value="" style="curved=1;endArrow=classic;html=1;rounded=0;strokeWidth=3;exitX=0.234;exitY=0.976;exitDx=0;exitDy=0;exitPerimeter=0;entryX=1.004;entryY=0.308;entryDx=0;entryDy=0;entryPerimeter=0;fontFamily=Helvetica;" parent="Zr5mx6mt9YZKuDAXMMV7-198" source="Zr5mx6mt9YZKuDAXMMV7-200" target="Zr5mx6mt9YZKuDAXMMV7-201" edge="1">
          <mxGeometry width="50" height="50" relative="1" as="geometry">
            <mxPoint x="70.59759547383308" y="78.10709621953518" as="sourcePoint" />
            <mxPoint x="100.93705799151341" y="102.02739443676784" as="targetPoint" />
            <Array as="points">
              <mxPoint x="93.35219236209332" y="80.54794297639565" />
            </Array>
          </mxGeometry>
        </mxCell>
      </root>
    </mxGraphModel>
  </diagram>
</mxfile>
